<svg xmlns="http://www.w3.org/2000/svg" viewBox="0 0 128 128"><title>alchemism</title><path d="M55.4667,0H72.5333V17.0667H55.4667V0Z" fill="#d263cb"/><path d="M55.4667,0V8.5333H46.9333V0Z" fill="#b847b7"/><path d="M72.5333,8.5333V0h8.5333V8.5333Z" fill="#b847b7"/><path d="M81.0667,25.6v8.5333H46.9333V25.6H81.0667Z" fill="#b847b7"/><path d="M46.9333,25.6h-8.37a70.2769,70.2769,0,0,1-.1518-8.2676c-.0523-2.8131-.0116-5.6278-.0116-8.7991h8.5333V25.6Z" fill="#d263cb"/><path d="M81.0667,8.5333h8.37a70.2777,70.2777,0,0,1,.1518,8.2676c.0523,2.8131.0116,5.6279.0116,8.7991H81.0667V8.5333Z" fill="#d263cb"/><path d="M12.8,85.3333V68.2667h8.5333V85.3333Z" fill="#d263cb"/><path d="M115.2,68.2667V85.3333h-8.5333V68.2667Z" fill="#d263cb"/><path d="M12.8,85.3333h8.5333V102.4H12.8Z" fill="#b847b7"/><path d="M106.6667,85.3333H115.2V102.4h-8.5333V85.3333Z" fill="#b847b7"/><path d="M89.6,119.4667V128H72.5333v-8.5333H89.6Z" fill="#b847b7"/><path d="M55.4667,128H38.4v-8.5333H55.4667Z" fill="#b847b7"/><path d="M55.4667,128v-8.5333H72.5333V128Z" fill="#d263cb"/><path d="M89.6,42.6667h8.5333V51.2H89.6Z" fill="#b847b7"/><path d="M98.1333,51.2h8.5333v8.5333H98.1333Z" fill="#b847b7"/><path d="M21.3333,68.2667H12.8V59.7333h8.5333Z" fill="#b847b7"/><path d="M21.3333,59.7333V51.2h8.5333v8.5333Z" fill="#b847b7"/><path d="M115.2,68.2667h-8.5333V59.7333H115.2Z" fill="#b847b7"/><path d="M38.4,42.6667V34.1333h8.5333v8.5333Z" fill="#b847b7"/><path d="M81.0667,34.1333H89.6v8.5333H81.0667Z" fill="#b847b7"/><path d="M29.8667,110.9333H21.3333V102.4h8.5333Z" fill="#b847b7"/><path d="M106.6667,102.4v8.5333H98.1333V102.4Z" fill="#b847b7"/><path d="M29.8667,51.2V42.6667H38.4V51.2Z" fill="#b847b7"/><path d="M98.1333,110.9333v8.5333H89.6v-8.5333Z" fill="#b847b7"/><path d="M38.4,119.4667H29.8667v-8.5333H38.4Z" fill="#b847b7"/><path d="M72.5333,25.6H55.4667V17.0667H72.5333Z" fill="#fb70e8"/><path d="M46.9333,17.0667V8.5333h8.5333v8.5333Z" fill="#fb70e8"/><path d="M81.0667,8.5333v8.5333H72.5333V8.5333Z" fill="#fb70e8"/><path d="M55.4667,34.1333H72.5333v8.5333h8.5333V51.2H89.6V68.2667H81.0667V59.5992H72.4229V51.2H55.4667V34.1333Z" fill="#d263cb"/><path d="M46.9333,17.0667h8.5333V25.6H46.9333Z" fill="#e864d1"/><path d="M72.5333,17.0667h8.5333V25.6H72.5333Z" fill="#e864d1"/><path d="M55.4667,34.1333v8.5333H46.9333V34.1333Z" fill="#892189"/><path d="M81.0667,42.6667H72.5333V34.1333h8.5333Z" fill="#892189"/><path d="M21.3333,93.8667V76.8h8.5333V93.8667Z" fill="#fb70e8"/><path d="M29.8667,76.8H21.3333V59.7333h8.5333Z" fill="#e864d1"/><path d="M106.6667,85.3333v8.5333H98.1333V76.8h8.5333Z" fill="#fb70e8"/><path d="M106.6667,76.8H98.1333V68.2667h8.5333Z" fill="#e864d1"/><path d="M21.3333,93.8667h8.5333V102.4H21.3333Z" fill="#e864d1"/><path d="M98.1333,93.8667h8.5333V102.4H98.1333Z" fill="#e864d1"/><path d="M72.5333,119.4667h-25.6v-8.5333H81.0667v8.5333Z" fill="#fb70e8"/><path d="M81.0667,119.4667v-8.5333H89.6v8.5333Z" fill="#e864d1"/><path d="M46.9333,110.9333v8.5333H38.4v-8.5333Z" fill="#e864d1"/><path d="M89.6,51.2H81.0667V42.6667H89.6Z" fill="#e864d1"/><path d="M89.6,59.7333V51.2h8.5333v8.5333Z" fill="#e864d1"/><path d="M106.6667,68.2667H98.1333V59.7333h8.5333Z" fill="#d263cb"/><path d="M98.1333,59.7333V76.8H29.8667V51.2H46.9333v8.5333H38.2956c.3084,3.086-.1871,5.8414.32,8.5333H89.6V59.7333Z" fill="#fb70e8"/><path d="M46.9333,51.2H38.4V42.6667h8.5333Z" fill="#e864d1"/><path d="M38.4,110.9333H29.8667V102.4H38.4Z" fill="#e864d1"/><path d="M98.1333,110.9333H89.6V102.4h8.5333Z" fill="#e864d1"/><path d="M81.0667,68.2667H46.9333V59.7333h8.5333V51.2H72.4229v8.3992h8.6438Z" fill="#b847b7"/><path d="M46.9333,51.2V42.6667h8.5333V51.2Z" fill="#fb70e8"/><path d="M38.4,102.4H29.8667V85.3333H38.4Z" fill="#d263cb"/><path d="M38.4,85.3333H29.8667V76.8H38.4Z" fill="#e864d1"/><path d="M38.4,85.3333V76.8H98.1333v25.6H89.6V85.3333Z" fill="#d263cb"/><path d="M38.4,85.3333H89.6V102.4H81.0667v8.5333H46.9333V102.4H38.4Z" fill="#b847b7"/><path d="M81.0667,110.9333V102.4H89.6v8.5333Z" fill="#d263cb"/><path d="M38.4,102.4h8.5333v8.5333H38.4Z" fill="#d263cb"/><path d="M46.9333,51.2h8.5333v8.5333H46.9333Z" fill="#e864d1"/><path d="M46.9333,59.7333v8.5333H38.6159c-.5074-2.692-.0119-5.4473-.32-8.5333Z" fill="#e864d1"/></svg>