<svg xmlns="http://www.w3.org/2000/svg" viewBox="0 0 128 128"><title>armouring</title><path d="M102.1678,121.4825H89.6708v-12.771H38.6165v12.771H25.542V83.17h12.771V70.3985H89.3968V83.17h12.771v38.3129Z" fill="#3d3d3d"/><path d="M114.9388,32.0856h11.9566c1.1644,6.71,1.5075,52.6234.5463,76.6259H114.9388Z" fill="#787878"/><path d="M25.542,19.3146V6.6935c10.6871-.3169,21.409-.1008,32.1223-.1412,10.5774-.04,21.1551-.0087,31.7326-.0087v12.771H25.542Z" fill="#8e8e8e"/><path d="M0,95.94V32.0856H12.771V95.94Z" fill="#8e8e8e"/><path d="M89.3968,19.3146V6.5437h12.771v12.771Z" fill="#787878"/><path d="M12.771,32.0856V19.3146H25.542v12.771Z" fill="#8e8e8e"/><path d="M102.1678,19.3146h12.771v12.771h-12.771Z" fill="#787878"/><path d="M0,95.94H12.771v12.771H0Z" fill="#787878"/><path d="M25.542,108.7115v12.771H12.771v-12.771Z" fill="#787878"/><path d="M102.1678,121.4825v-12.771h12.771v12.771Z" fill="#787878"/><path d="M12.771,95.94V44.8566H25.542V32.0856h12.771V19.3146H89.3968v25.542H38.3129v12.771H25.542V95.94Z" fill="#aeaeae"/><path d="M76.6259,44.8566h12.771V19.3146h12.771v12.771h12.771v76.6259h-12.771V57.6276H76.6259Z" fill="#a3a3a3"/><path d="M76.6259,57.6276h12.771v12.771H38.3129V57.6276H76.6259Z" fill="#484848"/><path d="M25.542,83.17V70.3985h12.771V83.17Z" fill="#484848"/><path d="M102.1678,70.3985V83.17H89.3968V70.3985Z" fill="#484848"/><path d="M12.771,95.94H25.542v12.771H12.771Z" fill="#a3a3a3"/><path d="M38.3129,19.3146v12.771H25.542V19.3146Z" fill="#a3a3a3"/><path d="M25.542,32.0856v12.771H12.771V32.0856Z" fill="#a3a3a3"/><path d="M76.6259,57.6276H51.0839V44.8566h25.542Z" fill="#8e8e8e"/><path d="M51.0839,44.8566v12.771H38.3129V44.8566Z" fill="#a3a3a3"/><path d="M38.3129,70.3985H25.542V57.6276h12.771Z" fill="#8e8e8e"/><path d="M102.1678,70.3985H89.3968V57.6276h12.771Z" fill="#8e8e8e"/></svg>