<svg xmlns="http://www.w3.org/2000/svg" viewBox="0 0 128 128"><title>cooking</title><path d="M16,128v-8H32v8Z" fill="#b85b47"/><path d="M0,96H8v8H0Z" fill="#b85b47"/><path d="M0,104H8v8H0Z" fill="#d27d63"/><path d="M80,96v7.7932H72.03v8.1163H40.1516V120H32V96h8v8c7.9686,0,15.5971.0009,23.2256-.0066a.83.83,0,0,0,.4287-.1587,2.3665,2.3665,0,0,0,.3457-.351V96H80Z" fill="#b85b47"/><path d="M120,32v8H104V32h16Z" fill="#b85b47"/><path d="M128,16V32h-8V16Z" fill="#b85b47"/><path d="M104,56V72H96V56Z" fill="#b85b47"/><path d="M96,64V80H88V64Z" fill="#d27d63"/><path d="M104,40v8H96V40Z" fill="#b85b47"/><path d="M96,48h8v8H96Z" fill="#d27d63"/><path d="M88,80h8v8H88Z" fill="#b85b47"/><path d="M88,88v8H80V88Z" fill="#b85b47"/><path d="M8,96V88.0359h7.9056V64H24V96Z" fill="#b85b47"/><path d="M64,24H79.9293c.1624-2.55.0431-5.152.0656-7.7419C80.0178,13.6183,80,10.9781,80,8h8V32H64Z" fill="#b85b47"/><path d="M24,64V48h8V64Z" fill="#b85b47"/><path d="M40,40V32H56v8H40Z" fill="#b85b47"/><path d="M32,48V40h8v8Z" fill="#b85b47"/><path d="M88,0h8V8H88Z" fill="#b85b47"/><path d="M64,24v8H56V24Z" fill="#d27d63"/><path d="M104,0V8H96V0Z" fill="#d27d63"/><path d="M16,120H8v-8h8Z" fill="#d27d63"/><path d="M16,120v-8h8v8Z" fill="#e89164"/><path d="M24,120v-8h8v8Z" fill="#d27d63"/><path d="M24,112H8V96H32v8H24Z" fill="#fb9970"/><path d="M72,96H48V79.828h7.8294v-8.015H48V64h8V56h8V72h8v8h8v8H72Z" fill="#e89164"/><path d="M24,64h8v8.19h8V96H32V88H24Z" fill="#e89164"/><path d="M40,96V88h8v8H64v7.4837a2.3665,2.3665,0,0,1-.3457.351.83.83,0,0,1-.4287.1587C55.5971,104.0009,47.9686,104,40,104Z" fill="#d27d63"/><path d="M72,96V88h8v8Z" fill="#d27d63"/><path d="M24,112v-8h8v8Z" fill="#e89164"/><path d="M112,32h-8V24h8Z" fill="#e89164"/><path d="M112,32V24h8v8Z" fill="#d27d63"/><path d="M104,40H96V32h8Z" fill="#e89164"/><path d="M120,24h-8V16h8Z" fill="#e89164"/><path d="M72,32h8V48H96V64H80V56H64V47.81h8Z" fill="#e89164"/><path d="M80,64h8v8H80Z" fill="#fb9970"/><path d="M80,72h8v8H80Z" fill="#e89164"/><path d="M96,48H88V40H80V32H96V48Z" fill="#d27d63"/><path d="M80,80h8v8H80Z" fill="#d27d63"/><path d="M24,88h8v8H24Z" fill="#d27d63"/><path d="M72,32V47.81H64V56H40V48h8V40h8V32H72Z" fill="#fb9970"/><path d="M96,32H88V16h8V32Z" fill="#e89164"/><path d="M96,16H88V8h8Z" fill="#fb9970"/><path d="M32,64V56h8v8Z" fill="#e89164"/><path d="M40,56H32V48h8Z" fill="#d27d63"/><path d="M48,40v8H40V40Z" fill="#d27d63"/><path d="M104,8h8v8h-8Z" fill="#d27d63"/><path d="M112,16V8h8v8Z" fill="#b85b47"/><path d="M104,8v8H96V8Z" fill="#e89164"/><path d="M32,64H48v7.8129h7.8294v8.015H48V88H40V72.19H32Z" fill="#fb9970"/><path d="M48,64H40V56H56v8Z" fill="#d27d63"/><path d="M64,56h8v8H64Z" fill="#fb9970"/><path d="M64,64h8v8H64Z" fill="#d27d63"/><path d="M80,72v8H72V72Z" fill="#fb9970"/><path d="M104,16h8v8h-8Z" fill="#fb9970"/><path d="M96,32V24h8v8Z" fill="#fb9970"/><path d="M80,40h8v8H80Z" fill="#fb9970"/><path d="M72,64V56h8v8Z" fill="#d27d63"/><path d="M72,64h8v8H72Z" fill="#e89164"/><path d="M104,24H96V16h8Z" fill="#d27d63"/></svg>