<svg xmlns="http://www.w3.org/2000/svg" viewBox="0 0 128 128"><title>jeweling</title><path d="M53.37,10.8505V.9C58.87-.0586,87.6244-.317,106.52.4453V10.8505H53.37Z" fill="#b89d47"/><path d="M117.1495,21.48h9.95c.9589,5.5,1.2174,34.2542.4551,53.1495H117.1495V21.48Z" fill="#b89d47"/><path d="M74.63,117.1495v9.95c-5.5.9589-34.2541,1.2174-53.1495.4551V117.1495H74.63Z" fill="#b89d47"/><path d="M10.8505,106.52H.9C-.0586,101.0194-.317,72.2651.4453,53.37H10.8505V106.52Z" fill="#b89d47"/><path d="M32.11,21.48v-10.63H53.37V21.48H32.11Z" fill="#b89d47"/><path d="M10.8505,64V42.74H21.48V64Z" fill="#d2bd63"/><path d="M106.52,10.8505h10.63V21.48H106.52Z" fill="#b89d47"/><path d="M21.48,32.11V21.48H32.11V32.11Z" fill="#b89d47"/><path d="M21.48,42.74h-10.63V32.11H21.48Z" fill="#b89d47"/><path d="M117.1495,74.63V85.26H106.52V74.63Z" fill="#d2bd63"/><path d="M106.52,85.26h10.63V95.89H106.52Z" fill="#b89d47"/><path d="M106.52,95.89v10.63H95.89V95.89Z" fill="#d2bd63"/><path d="M21.48,117.1495h-10.63V106.52H21.48Z" fill="#b89d47"/><path d="M85.26,117.1495H74.63V106.52H85.26Z" fill="#d2bd63"/><path d="M85.26,117.1495V106.52H95.89v10.63Z" fill="#b89d47"/><path d="M74.63,10.8505H95.89V21.48H74.63Z" fill="#fbeb70"/><path d="M53.37,21.48v-10.63H64V21.48Z" fill="#d2bd63"/><path d="M64,21.48v-10.63H74.63V21.48Z" fill="#e8de64"/><path d="M95.89,21.48v-10.63h10.63V21.48Z" fill="#e8de64"/><path d="M117.1495,74.63H95.89V64h10.63V53.37h10.63Z" fill="#e8de64"/><path d="M117.1495,53.37H106.52V32.11h10.63Z" fill="#fbeb70"/><path d="M117.1495,32.11H106.52V21.48h10.63Z" fill="#e8de64"/><path d="M74.63,106.52v10.63H53.37V106.52H64V95.89H74.63Z" fill="#e8de64"/><path d="M53.37,106.52v10.63H32.11V106.52Z" fill="#fbeb70"/><path d="M32.11,106.52v10.63H21.48V106.52Z" fill="#e8de64"/><path d="M10.8505,95.89V74.63H21.48V95.89Z" fill="#fbeb70"/><path d="M10.8505,95.89H21.48v10.63h-10.63Z" fill="#e8de64"/><path d="M21.48,74.63h-10.63V64H21.48Z" fill="#e8de64"/><path d="M53.37,21.48H64V32.11H42.74V21.48Z" fill="#fbeb70"/><path d="M42.74,21.48V32.11H32.11V21.48Z" fill="#d2bd63"/><path d="M21.48,53.37V42.74H42.74V53.37H21.48Z" fill="#fbeb70"/><path d="M21.48,53.37H32.11V64H21.48Z" fill="#e8de64"/><path d="M32.11,42.74H21.48V32.11H32.11Z" fill="#d2bd63"/><path d="M95.89,74.63h10.63V85.26H95.89Z" fill="#fbeb70"/><path d="M95.89,85.26h10.63V95.89H95.89Z" fill="#e8de64"/><path d="M95.89,106.52H85.26V95.89H95.89Z" fill="#e8de64"/><path d="M85.26,95.89v10.63H74.63V95.89Z" fill="#fbeb70"/><path d="M74.63,21.48H95.89V32.11H74.63Z" fill="#b89d47"/><path d="M74.63,21.48V32.11H64V21.48Z" fill="#d2bd63"/><path d="M95.89,32.11V21.48h10.63V32.11Z" fill="#d2bd63"/><path d="M95.89,64V74.63H85.26V64Z" fill="#b89d47"/><path d="M106.52,53.37V64H95.89V53.37Z" fill="#d2bd63"/><path d="M106.52,53.37H95.89V32.11h10.63Z" fill="#b89d47"/><path d="M74.63,95.89H64V85.26H74.63Z" fill="#b89d47"/><path d="M64,95.89v10.63H53.37V95.89Z" fill="#d2bd63"/><path d="M53.37,95.89v10.63H32.11V95.89Z" fill="#b89d47"/><path d="M32.11,95.89v10.63H21.48V95.89Z" fill="#d2bd63"/><path d="M32.11,95.89H21.48V74.63H32.11Z" fill="#b89d47"/><path d="M32.11,74.63H21.48V64H32.11Z" fill="#d2bd63"/><path d="M32.11,42.74V32.11H53.37V42.74H32.11Z" fill="#e8de64"/><path d="M53.37,42.74V32.11H64V42.74Z" fill="#d2bd63"/><path d="M32.11,64V53.37H42.74V64Z" fill="#d2bd63"/><path d="M42.74,42.74H53.37V53.37H42.74Z" fill="#b89d47"/><path d="M85.26,74.63H95.89V85.26H85.26Z" fill="#d2bd63"/><path d="M85.26,85.26H95.89V95.89H85.26Z" fill="#fbeb70"/><path d="M85.26,85.26V95.89H74.63V85.26Z" fill="#d2bd63"/><path d="M74.63,32.11V42.74H64V32.11Z" fill="#b89d47"/><path d="M42.74,64V74.63H32.11V64Z" fill="#b89d47"/></svg>