<svg xmlns="http://www.w3.org/2000/svg" viewBox="0 0 128 128"><title>scribing</title><path d="M0,89.8275H76.778v8.5309H0Z" fill="#b2b2b2"/><path d="M0,98.3584H8.5309v8.5309H0Z" fill="#959595"/><path d="M119.4324,89.8275V106.7h-8.3678v8.5778h-8.5732v8.4374h-85.43V115.42q33.7192,0,67.4385-.0075a.8582.8582,0,0,0,.4514-.18,2.51,2.51,0,0,0,.3573-.3783v-7.9652h17.0618V98.3584h8.5309V89.8275Z" fill="#959595"/><path d="M25.5927,13.05V5.059C30.25,4.26,92.7608,3.9809,110.9015,4.6949V13.05H25.5927Z" fill="#b2b2b2"/><path d="M119.4324,21.58h8.3718a72.444,72.444,0,0,1,.1478,8.28c.051,2.8129.0113,5.6274.0113,8.7814H93.84V21.58h8.5309v8.5309c3.17,0,5.9843.0407,8.7965-.0116a70.2549,70.2549,0,0,0,8.2652-.1518Z" fill="#959595"/><path d="M119.4324,89.8275h-8.5309V81.2966h-8.5309V72.7658h17.0618Z" fill="#b2b2b2"/><path d="M8.5309,47.1731V21.58h8.5309V47.1731Z" fill="#b2b2b2"/><path d="M102.3706,13.05h17.0618V21.58H102.3706Z" fill="#959595"/><path d="M25.5927,89.8275H17.0618V72.7658h8.5309V89.8275Z" fill="#959595"/><path d="M8.5309,47.1731h8.5309V64.2349H8.5309Z" fill="#959595"/><path d="M17.0618,21.58V13.05h8.5309V21.58Z" fill="#b2b2b2"/><path d="M110.9015,55.704v8.5309h-8.5309V55.704Z" fill="#b2b2b2"/><path d="M119.4324,72.7658h-8.5309V64.2349h8.5309Z" fill="#959595"/><path d="M93.84,38.6422h8.5309v8.5309H93.84Z" fill="#b2b2b2"/><path d="M110.9015,55.704h-8.5309V47.1731h8.5309Z" fill="#959595"/><path d="M17.0618,115.42H8.5309v-8.5309h8.5309Z" fill="#959595"/><path d="M25.5927,72.7658H17.0618V64.2349h8.5309Z" fill="#b2b2b2"/><path d="M25.5927,72.7658V55.704H17.0618V30.1113h8.5309V21.58h8.5309V13.05H93.84V21.58H68.1637c.2518,3.0719-.1606,5.8264.2988,8.7085H85.3089c0,2.9873-.04,5.8014.0115,8.6139a70.9771,70.9771,0,0,0,.15,8.27H93.84V55.704h8.5309v8.5309H93.8089c.112,3.0909-.1307,5.8336.1674,8.5309h8.3943v8.5309H93.8089c.112,3.0909-.1307,5.8336.1674,8.5309h8.3943v8.5309H85.3089V89.8275H34.1235V81.2966H85.34c-.112-3.0909.1307-5.8336-.1674-8.5309H34.1235v8.5309H25.5927ZM42.6544,47.1731H76.862c-.2492-3.0869.1566-5.8373-.2662-8.5309H25.5618c.112,3.0909-.1307,5.8336.1674,8.5309H42.6544ZM68.2471,55.704H34.0191c.3083,3.0851-.1871,5.84.32,8.5309H85.4215c-.3333-3.0818.2018-5.84-.3442-8.5309Zm-8.63-33.9564H42.921v8.1965H59.6168Z" fill="#dadada"/><path d="M17.0618,106.8893H8.5309V98.3584H76.778v8.5309Z" fill="#dadada"/><path d="M76.778,106.8893V89.8275h8.5309v17.0618Z" fill="#959595"/><path d="M34.1235,81.2966v8.5309H25.5927V81.2966Z" fill="#ccc"/><path d="M76.778,106.8893h8.5309v7.9652a2.51,2.51,0,0,1-.3573.3783.8582.8582,0,0,1-.4514.18q-33.7192.0117-67.4385.0075v-8.5309Z" fill="#ccc"/><path d="M85.3089,106.8893V98.3584h17.0618v8.5309Z" fill="#ccc"/><path d="M102.3706,98.3584V89.8275h8.5309v8.5309Z" fill="#b2b2b2"/><path d="M34.1235,13.05V21.58H25.5927V13.05Z" fill="#ccc"/><path d="M93.84,21.58V13.05h8.5309V21.58Z" fill="#ccc"/><path d="M93.84,47.1731h-8.369a70.9771,70.9771,0,0,1-.15-8.27c-.0519-2.8125-.0115-5.6266-.0115-8.6139H68.4626c-.4594-2.882-.0471-5.6366-.2988-8.7085H93.84V47.1731Z" fill="#ccc"/><path d="M102.3706,21.58h17.0618V29.948a70.2549,70.2549,0,0,1-8.2652.1518c-2.8123.0523-5.6262.0116-8.7965.0116Z" fill="#ccc"/><path d="M102.3706,72.7658H93.9763c-.2981-2.6973-.0554-5.44-.1674-8.5309h17.0926v8.5309Z" fill="#ccc"/><path d="M110.9015,89.8275H93.9763c-.2981-2.6973-.0554-5.44-.1674-8.5309h17.0926Z" fill="#ccc"/><path d="M25.5927,21.58v8.5309H17.0618V21.58Z" fill="#ccc"/><path d="M17.0618,55.704h8.5309v8.5309H17.0618Z" fill="#ccc"/><path d="M102.3706,55.704H93.84V47.1731h8.5309Z" fill="#ccc"/><path d="M42.6544,55.704H68.2471v8.5309H42.6544Z" fill="#b2b2b2"/><path d="M68.2471,64.2349V55.704h16.83c.546,2.691.0109,5.4491.3442,8.5309Z" fill="#ccc"/><path d="M59.7162,81.2966H42.6544V72.7658H59.7162Z" fill="#b2b2b2"/><path d="M59.6168,21.7476v8.1965H42.921V21.7476Z" fill="#ccc"/><path d="M68.2471,47.1731H51.1853V38.6422H68.2471Z" fill="#b2b2b2"/><path d="M34.1235,47.1731H25.7292c-.2981-2.6973-.0554-5.44-.1674-8.5309h8.5617Z" fill="#ccc"/><path d="M34.1235,47.1731V38.6422h8.5309v8.5309Z" fill="#b2b2b2"/><path d="M42.6544,47.1731V38.6422h8.5309v8.5309Z" fill="#ccc"/><path d="M68.2471,47.1731V38.6422h8.3487c.4228,2.6936.017,5.444.2662,8.5309Z" fill="#ccc"/><path d="M59.7162,81.2966V72.7658h8.5309v8.5309Z" fill="#ccc"/><path d="M68.2471,81.2966V72.7658H76.778v8.5309Z" fill="#b2b2b2"/><path d="M76.778,81.2966V72.7658h8.3943c.2981,2.6973.0554,5.44.1674,8.5309Z" fill="#ccc"/><path d="M42.6544,55.704v8.5309H34.3394c-.5073-2.6912-.0119-5.4458-.32-8.5309Z" fill="#ccc"/><path d="M42.6544,72.7658v8.5309H34.1235V72.7658Z" fill="#ccc"/></svg>