<svg xmlns="http://www.w3.org/2000/svg" viewBox="0 0 128 128"><title>tailoring</title><path d="M110.4445,128H17.3536V116.3636h93.0909Z" fill="#63b8d2"/><path d="M52.2627,69.8182H41.3667C40.3051,63.6787,39.9947,21.275,40.88,0H63.899V11.6364H52.2627V69.8182Z" fill="#47a4b8"/><path d="M98.8081,0h22.5184c1.0815,6.0773,1.3993,47.5176.5113,69.8182H110.4445V11.6364H98.8081Z" fill="#47a4b8"/><path d="M110.4445,128V81.4545h10.9639a3.5928,3.5928,0,0,1,.4364.5044,1.3016,1.3016,0,0,1,.2266.6266c.01,14.9721.0095,29.9441.0095,45.4145Z" fill="#47a4b8"/><path d="M98.8081,0V11.6364H63.899V0Z" fill="#63b8d2"/><path d="M52.2627,81.4545V69.8182H63.899V81.4545Z" fill="#47a4b8"/><path d="M110.4445,69.8182V81.4545H98.8081V69.8182Z" fill="#47a4b8"/><path d="M40.6263,93.0909V81.4545H52.2627V93.0909Z" fill="#63b8d2"/><path d="M17.3536,104.7273V93.0909H28.99v11.6364Z" fill="#47a4b8"/><path d="M28.99,104.7273V93.0909H40.6263v11.6364Z" fill="#63b8d2"/><path d="M5.7172,116.3636V104.7273H17.3536v11.6364Z" fill="#63b8d2"/><path d="M5.7172,116.3636H17.3536V128H5.7172Z" fill="#47a4b8"/><path d="M28.99,104.7273H52.2627V93.0909H63.899V81.4545H87.1717v34.9091H28.99Z" fill="#70d1fb"/><path d="M87.1717,116.3636V81.4545H98.8081V93.0909h11.6364v23.2727Z" fill="#64bbe8"/><path d="M28.99,104.7273v11.6364H17.3536V104.7273Z" fill="#64bbe8"/><path d="M52.2627,58.1818V34.9091H87.1717V69.8182H63.899V58.1818Z" fill="#70d1fb"/><path d="M63.899,11.6364h46.5455V23.2727H52.2627V11.6364Z" fill="#70d1fb"/><path d="M52.2627,23.2727H63.899V34.9091H52.2627Z" fill="#63b8d2"/><path d="M52.2627,58.1818H63.899V69.8182H52.2627Z" fill="#64bbe8"/><path d="M63.899,34.9091V23.2727H98.8081V34.9091h11.6364V58.1818H98.8081V69.8182H87.1717V34.9091Z" fill="#64bbe8"/><path d="M110.4445,34.9091H98.8081V23.2727h11.6364Z" fill="#63b8d2"/><path d="M98.8081,69.8182V58.1818h11.6364V69.8182Z" fill="#63b8d2"/><path d="M110.4445,93.0909H98.8081V81.4545h11.6364Z" fill="#63b8d2"/><path d="M63.899,69.8182H75.5354V81.4545H63.899Z" fill="#63b8d2"/><path d="M63.899,81.4545V93.0909H52.2627V81.4545Z" fill="#64bbe8"/><path d="M87.1717,69.8182H98.8081V81.4545H87.1717Z" fill="#63b8d2"/><path d="M52.2627,93.0909v11.6364H40.6263V93.0909Z" fill="#64bbe8"/><path d="M87.1717,69.8182V81.4545H75.5354V69.8182Z" fill="#64bbe8"/></svg>