<svg xmlns="http://www.w3.org/2000/svg" viewBox="0 0 128 128"><title>weaponsmithing</title><path d="M96.1419,10.6667V.7263a3.1178,3.1178,0,0,1,.4325-.4779A1.0441,1.0441,0,0,1,97.1315.01C107.2792-.0012,117.4269,0,127.8581,0V32H117.4752V10.6667Z" fill="#d2a163"/><path d="M32.1419,74.6667H21.6177c-.3223-10.5043-.027-21.0261-.1818-32H32.1419v32Z" fill="#b88047"/><path d="M85.4752,96v9.9783a3.1565,3.1565,0,0,1-.4609.468,1.107,1.107,0,0,1-.5716.2116c-10.1713.01-20.3426.0088-30.9674.0088V96h32Z" fill="#b88047"/><path d="M42.8086,53.3334H53.4752V74.6667H42.8086V53.3334Z" fill="#d2a163"/><path d="M74.8086,74.6667V85.3333H53.4752V74.6667H74.8086Z" fill="#d2a163"/><path d="M64.1419,42.6667V32H74.8086V42.6667Z" fill="#d2a163"/><path d="M117.4752,32V42.6667H106.8086V32Z" fill="#d2a163"/><path d="M32.1419,53.3334V42.6667H42.8086V53.3334Z" fill="#d2a163"/><path d="M53.4752,53.3334V42.6667H64.1419V53.3334Z" fill="#b88047"/><path d="M106.8086,42.6667V53.3334H96.1419V42.6667Z" fill="#d2a163"/><path d="M96.1419,53.3334V64H85.4752V53.3334Z" fill="#d2a163"/><path d="M85.4752,64V74.6667H74.8086V64Z" fill="#b88047"/><path d="M32.1419,85.3333V74.6667H42.8086V85.3333Z" fill="#e8bd64"/><path d="M85.4752,21.3334V10.6667H96.1419V21.3334Z" fill="#d2a163"/><path d="M21.4753,96V85.3333H32.1419V96Z" fill="#d2a163"/><path d="M53.4752,96H42.8086V85.3333H53.4752Z" fill="#d2a163"/><path d="M85.4752,96H74.8086V85.3333H85.4752Z" fill="#d2a163"/><path d="M10.8086,106.6667V96H21.4753v10.6667Z" fill="#d2a163"/><path d="M42.8086,96v10.6667H32.1419V96Z" fill="#d2a163"/><path d="M74.8086,32V21.3334H85.4752V32Z" fill="#d2a163"/><path d="M.1419,117.3333V106.6667H10.8086v10.6667Z" fill="#b88047"/><path d="M32.1419,106.6667v10.6667H21.4753V106.6667Z" fill="#b88047"/><path d="M.1419,117.3333H10.8086V128H.1419Z" fill="#e8bd64"/><path d="M10.8086,128V117.3333H21.4753V128Z" fill="#b88047"/><path d="M74.8086,32H85.4752V21.3334H96.1419V10.6667h21.3333V32H106.8086V42.6667H96.1419V53.3334H85.4752V64H74.8086V74.6667H64.1419V64H53.4752V53.3334H64.1419V42.6667H74.8086Z" fill="#fbc870"/><path d="M32.1419,53.3334H42.8086V64H32.1419Z" fill="#e8bd64"/><path d="M32.1419,64H42.8086V74.6667H32.1419Z" fill="#fbc870"/><path d="M53.4752,96V85.3333H64.1419V96Z" fill="#fbc870"/><path d="M64.1419,96V85.3333H74.8086V96Z" fill="#e8bd64"/><path d="M53.4752,64H64.1419V74.6667H53.4752Z" fill="#e8bd64"/><path d="M53.4752,85.3333H42.8086V74.6667H53.4752Z" fill="#fbc870"/><path d="M42.8086,96H32.1419V85.3333H42.8086Z" fill="#fbc870"/><path d="M32.1419,106.6667H21.4753V96H32.1419Z" fill="#fbc870"/><path d="M21.4753,117.3333H10.8086V106.6667H21.4753Z" fill="#e8bd64"/></svg>