<svg xmlns="http://www.w3.org/2000/svg" viewBox="0 0 128 128"><title>woodworking</title><path d="M102.4,8.5333V0H128V8.5333H102.4Z" fill="#5a8840"/><path d="M17.0667,110.9333H0V102.4H17.0667Z" fill="#4d782e"/><path d="M8.5333,102.4H0V93.8667H8.5333Z" fill="#5a8840"/><path d="M110.9333,34.1333v8.5333H93.8667V34.1333h17.0667Z" fill="#4d782e"/><path d="M119.4667,8.5333H128V25.6h-8.5333V8.5333Z" fill="#4d782e"/><path d="M59.7333,76.8V93.8667H51.2V76.8Z" fill="#5a8840"/><path d="M51.2,93.8667v17.0667H42.6667V93.8667Z" fill="#5a8840"/><path d="M25.6,128H17.0667V110.9333H25.6V128Z" fill="#4d782e"/><path d="M93.8667,42.6667V51.2H85.3333V42.6667Z" fill="#4d782e"/><path d="M85.3333,51.2v8.5333H76.8V51.2Z" fill="#4d782e"/><path d="M76.8,59.7333v8.5333H68.2667V59.7333Z" fill="#4d782e"/><path d="M68.2667,68.2667V76.8H59.7333V68.2667Z" fill="#4d782e"/><path d="M119.4667,25.6v8.5333h-8.5333V25.6Z" fill="#4d782e"/><path d="M42.6667,110.9333v8.5333H34.1333v-8.5333Z" fill="#5a8840"/><path d="M25.6,128v-8.5333h8.5333V128Z" fill="#5a8840"/><path d="M85.3333,34.1333V17.0667h8.5333V34.1333Z" fill="#5a8840"/><path d="M34.1333,76.8V68.2667H51.2V76.8H34.1333Z" fill="#5a8840"/><path d="M17.0667,85.3333V76.8H34.1333v8.5333Z" fill="#5a8840"/><path d="M68.2667,51.2V42.6667H76.8V51.2Z" fill="#5a8840"/><path d="M59.7333,59.7333V51.2h8.5333v8.5333Z" fill="#5a8840"/><path d="M51.2,68.2667V59.7333h8.5333v8.5333Z" fill="#5a8840"/><path d="M93.8667,17.0667V8.5333H102.4v8.5333Z" fill="#5a8840"/><path d="M8.5333,93.8667V85.3333h8.5333v8.5333Z" fill="#5a8840"/><path d="M76.8,42.6667V34.1333h8.5333v8.5333Z" fill="#5a8840"/><path d="M119.4667,8.5333v8.5333h-8.5333V8.5333Z" fill="#63a349"/><path d="M110.9333,8.5333v8.5333H102.4V8.5333Z" fill="#569641"/><path d="M8.5333,93.8667H25.6V102.4H8.5333Z" fill="#63a349"/><path d="M17.0667,102.4H25.6v8.5333H17.0667Z" fill="#5a8840"/><path d="M93.8667,34.1333V25.6H102.4v8.5333Z" fill="#63a349"/><path d="M102.4,34.1333V25.6h8.5333v8.5333Z" fill="#569641"/><path d="M85.3333,42.6667V34.1333h8.5333v8.5333Z" fill="#63a349"/><path d="M110.9333,17.0667h8.5333V25.6h-8.5333Z" fill="#569641"/><path d="M51.2,68.2667h8.5333V76.8H51.2Z" fill="#63a349"/><path d="M42.6667,76.8H51.2v8.5333H42.6667Z" fill="#4d782e"/><path d="M42.6667,85.3333H51.2v8.5333H42.6667Z" fill="#569641"/><path d="M42.6667,110.9333H34.1333V93.8667h8.5333Z" fill="#63a349"/><path d="M34.1333,102.4v17.0667H25.6V102.4Z" fill="#569641"/><path d="M76.8,42.6667h8.5333V51.2H76.8Z" fill="#569641"/><path d="M68.2667,59.7333V51.2H76.8v8.5333Z" fill="#63a349"/><path d="M59.7333,68.2667V59.7333h8.5333v8.5333Z" fill="#569641"/><path d="M102.4,25.6H93.8667V17.0667H102.4Z" fill="#569641"/><path d="M42.6667,76.8v8.5333H34.1333V76.8Z" fill="#63a349"/><path d="M25.6,93.8667H17.0667V85.3333H34.1333v8.5333Z" fill="#569641"/><path d="M102.4,25.6V17.0667h8.5333V25.6Z" fill="#63a349"/><path d="M25.6,93.8667h8.5333V102.4H25.6Z" fill="#4d782e"/><path d="M34.1333,93.8667V85.3333h8.5333v8.5333Z" fill="#4d782e"/></svg>